<svg width="20" height="24" viewBox="0 0 20 24" fill="none" xmlns="http://www.w3.org/2000/svg">
<path d="M17.1758 22.7323H3.06797C2.85148 22.7336 2.64217 22.6546 2.48045 22.5107C2.31873 22.3668 2.21606 22.168 2.19225 21.9529L1.50043 11.5712C1.49679 11.4552 1.51694 11.3397 1.55966 11.2318C1.60238 11.1239 1.66675 11.0259 1.7488 10.9439C1.83086 10.8618 1.92887 10.7974 2.03676 10.7547C2.14466 10.712 2.26017 10.6918 2.37615 10.6955H18.0121C18.2444 10.6955 18.4671 10.7878 18.6314 10.952C18.7956 11.1162 18.8879 11.339 18.8879 11.5712L18.0515 21.9616C18.0257 22.1752 17.9222 22.3718 17.7607 22.514C17.5991 22.6561 17.391 22.7338 17.1758 22.7323V22.7323Z" stroke="black" stroke-width="2" stroke-linecap="round" stroke-linejoin="round"/>
<path d="M5.81334 10.6951V5.8786C5.81334 4.71732 6.27466 3.60361 7.09581 2.78246C7.91696 1.96131 9.03066 1.5 10.1919 1.5C11.3532 1.5 12.4669 1.96131 13.2881 2.78246C14.1092 3.60361 14.5705 4.71732 14.5705 5.8786V10.6951" stroke="black" stroke-width="2" stroke-linecap="round" stroke-linejoin="round"/>
</svg>
