<svg width="28" height="28" viewBox="0 0 28 28" fill="none" xmlns="http://www.w3.org/2000/svg">
<path d="M15.3354 13.6619C15.3005 13.6271 15.2809 13.5799 15.2809 13.5306C15.2809 13.4813 15.3005 13.4341 15.3354 13.3993L22.2072 6.52877C22.6417 6.09369 22.6412 5.38878 22.2061 4.95431C21.771 4.51984 21.066 4.52034 20.6315 4.95542L13.7604 11.823C13.7256 11.8579 13.6783 11.8775 13.6291 11.8775C13.5798 11.8775 13.5326 11.8579 13.4978 11.823L6.62667 4.95542C6.19217 4.52075 5.48753 4.52058 5.05282 4.95505C4.61811 5.38952 4.61794 6.0941 5.05245 6.52877L11.9228 13.3993C11.9577 13.4341 11.9773 13.4813 11.9773 13.5306C11.9773 13.5799 11.9577 13.6271 11.9228 13.6619L5.05245 20.5332C4.77137 20.8143 4.66167 21.2241 4.76467 21.6081C4.86766 21.9921 5.16771 22.292 5.55178 22.3948C5.93585 22.4976 6.3456 22.3877 6.62667 22.1065L13.4978 15.2352C13.5326 15.2004 13.5798 15.1808 13.6291 15.1808C13.6783 15.1808 13.7256 15.2004 13.7604 15.2352L20.6315 22.1065C21.066 22.5412 21.7706 22.5413 22.2053 22.1069C22.64 21.6724 22.6402 20.9678 22.2057 20.5332L15.3354 13.6619Z" fill="black"/>
<mask id="mask0_10791_1489" style="mask-type:luminance" maskUnits="userSpaceOnUse" x="4" y="4" width="19" height="19">
<path d="M15.3354 13.6619C15.3005 13.6271 15.2809 13.5799 15.2809 13.5306C15.2809 13.4813 15.3005 13.4341 15.3354 13.3993L22.2072 6.52877C22.6417 6.09369 22.6412 5.38878 22.2061 4.95431C21.771 4.51984 21.066 4.52034 20.6315 4.95542L13.7604 11.823C13.7256 11.8579 13.6783 11.8775 13.6291 11.8775C13.5798 11.8775 13.5326 11.8579 13.4978 11.823L6.62667 4.95542C6.19217 4.52075 5.48753 4.52058 5.05282 4.95505C4.61811 5.38952 4.61794 6.0941 5.05245 6.52877L11.9228 13.3993C11.9577 13.4341 11.9773 13.4813 11.9773 13.5306C11.9773 13.5799 11.9577 13.6271 11.9228 13.6619L5.05245 20.5332C4.77137 20.8143 4.66167 21.2241 4.76467 21.6081C4.86766 21.9921 5.16771 22.292 5.55178 22.3948C5.93585 22.4976 6.3456 22.3877 6.62667 22.1065L13.4978 15.2352C13.5326 15.2004 13.5798 15.1808 13.6291 15.1808C13.6783 15.1808 13.7256 15.2004 13.7604 15.2352L20.6315 22.1065C21.066 22.5412 21.7706 22.5413 22.2053 22.1069C22.64 21.6724 22.6402 20.9678 22.2057 20.5332L15.3354 13.6619Z" fill="white"/>
</mask>
<g mask="url(#mask0_10791_1489)">
</g>
</svg>
