<svg width="40" height="40" viewBox="0 0 40 40" fill="none" xmlns="http://www.w3.org/2000/svg">
<path d="M21.11 26.9482L21 27.0572L20.879 26.9482C15.654 22.2507 12.2 19.1444 12.2 15.9946C12.2 13.8147 13.85 12.1798 16.05 12.1798C17.744 12.1798 19.394 13.2698 19.977 14.752H22.023C22.606 13.2698 24.256 12.1798 25.95 12.1798C28.15 12.1798 29.8 13.8147 29.8 15.9946C29.8 19.1444 26.346 22.2507 21.11 26.9482ZM25.95 10C24.036 10 22.199 10.8828 21 12.267C19.801 10.8828 17.964 10 16.05 10C12.662 10 10 12.6267 10 15.9946C10 20.1035 13.74 23.4714 19.405 28.5613L21 30L22.595 28.5613C28.26 23.4714 32 20.1035 32 15.9946C32 12.6267 29.338 10 25.95 10Z" fill="black"/>
</svg>
