<svg width="54" height="28" viewBox="0 0 54 28" fill="none" xmlns="http://www.w3.org/2000/svg">
<g clip-path="url(#clip0_10671_160)">
<path d="M26.673 27.6358C26.673 23.2605 26.673 19.0256 26.673 14.6947C27.8998 14.6947 29.0417 14.6947 30.4422 14.6947C32.131 16.8601 33.9491 19.1882 35.9852 21.7934C35.9852 19.2473 35.9852 17.008 35.9852 14.6836C37.2934 14.6836 38.4352 14.6836 39.7249 14.6836C39.7249 18.9554 39.7249 23.2346 39.7249 27.6431C38.5018 27.6431 37.2453 27.6431 35.8744 27.6431C34.2152 25.474 32.4894 23.2087 30.5937 20.7218C30.5937 23.1385 30.5937 25.3151 30.5937 27.6358C29.2893 27.6358 28.0513 27.6358 26.673 27.6358Z" fill="black"/>
<path d="M49.961 27.6357C49.6986 26.9373 49.488 26.3719 49.2367 25.6956C47.9101 25.6956 46.5317 25.6956 45.0868 25.6956C44.8097 26.3201 44.5215 26.9742 44.2037 27.6948C42.9288 27.6948 41.6613 27.6948 40.1979 27.6948C41.8312 23.29 43.435 18.959 45.0314 14.665C46.4689 14.665 47.7401 14.665 49.1739 14.665C50.7666 18.9479 52.3593 23.2271 54 27.6394C52.5108 27.6357 51.2211 27.6357 49.961 27.6357ZM48.1244 22.4696C47.8066 21.3573 47.5184 20.3596 47.1045 18.9184C46.6832 20.3706 46.395 21.3647 46.0772 22.4696C46.7719 22.4696 47.3521 22.4696 48.1244 22.4696Z" fill="black"/>
<path d="M17.0503 27.6136C17.0503 23.29 17.0503 19.0589 17.0503 14.7131C19.6001 14.7131 22.0723 14.7131 24.6886 14.7131C24.6886 15.6998 24.6886 16.6901 24.6886 17.8763C23.4469 17.8763 22.1942 17.8763 20.8713 17.8763C20.8713 18.5082 20.8713 18.9554 20.8713 19.4616C22.0464 19.5171 23.1291 19.5725 24.3079 19.6279C24.3079 20.6663 24.3079 21.6086 24.3079 22.7394C23.1772 22.7394 22.1092 22.7394 20.9193 22.7394C20.8639 23.3602 20.8232 23.8037 20.7678 24.4356C22.2016 24.4356 23.5171 24.4356 24.962 24.4356C24.962 25.5553 24.962 26.5013 24.962 27.6136C22.4233 27.6136 19.8403 27.6136 17.0503 27.6136Z" fill="black"/>
<path d="M28.82 0.297607V9.16642C25.7824 6.00691 23.0294 3.14302 20.2911 0.297607H19.419V12.9578C20.0213 12.9209 20.5239 12.895 21.1669 12.8581V3.93382C22.4787 5.32327 23.4358 6.34318 24.3966 7.35571C25.4018 8.41996 26.3995 9.49161 27.4194 10.5374C28.3211 11.4649 29.2523 12.3666 30.1687 13.2793C30.2722 13.1574 30.3757 13.0354 30.4792 12.9172V0.297607H28.82Z" fill="black"/>
<path d="M0 14.6687C1.30815 14.6687 2.45371 14.6687 3.83207 14.6687C3.83207 17.8541 3.83207 21.0358 3.83207 24.3653C5.25108 24.3653 6.44837 24.3653 7.79717 24.3653C7.79717 25.5108 7.79717 26.5049 7.79717 27.6393C5.27325 27.6393 2.69021 27.6393 0 27.6393C0 23.3491 0 19.1179 0 14.6687Z" fill="black"/>
<path d="M16.3186 27.7023C13.7356 27.7023 11.256 27.7023 8.61383 27.7023C8.61383 23.3972 8.61383 19.1365 8.61383 14.7354C9.76308 14.7354 10.9456 14.7354 12.3572 14.7354C12.3572 17.9023 12.3572 21.0766 12.3572 24.395C13.7762 24.395 14.9698 24.395 16.3186 24.395C16.3186 25.5331 16.3186 26.5235 16.3186 27.7023Z" fill="black"/>
<path d="M16.6512 9.72442C16.4479 12.0857 14.5079 13.1648 11.6034 13.1315C8.92793 13.1057 7.32415 12.0784 7.10613 9.59508C6.84376 6.58338 7.03591 3.53473 7.0433 0.297607H8.79859C8.79859 0.297607 8.76164 5.67433 8.8688 8.10586C8.97227 10.3933 9.84068 11.2469 11.7696 11.2839C13.7467 11.3245 14.87 10.3231 14.9107 8.33128C14.9624 5.70019 14.9218 3.06911 14.9218 0.297607H16.7251C16.7325 3.51994 16.9209 6.64251 16.6512 9.72442Z" fill="black"/>
<path d="M37.8329 0.297607H37.0125C35.2092 4.45117 33.4022 8.61212 31.4954 12.9985C32.4451 12.9578 32.9735 12.932 33.5278 12.9098C34.0858 11.7051 34.6106 10.567 35.1131 9.47314H39.6769C40.209 10.6446 40.7263 11.7827 41.2252 12.8876H43.2798C41.4211 8.58995 39.6251 4.44378 37.8329 0.297607ZM35.9076 7.56634C36.4065 6.36905 36.8573 5.27523 37.4301 3.89317C37.977 5.32327 38.3835 6.38383 38.838 7.56634H35.9076Z" fill="black"/>
<path d="M1.7442 0.297607C1.7442 3.93752 1.7442 7.45918 1.7442 11.2136C3.28146 11.2136 4.48984 11.2136 5.81646 11.2136C5.81646 11.8271 5.81646 12.3296 5.81646 12.9098C3.85793 12.9098 1.99179 12.9098 0 12.9098C0 8.69712 0 4.57312 0 0.297607H1.7442Z" fill="black"/>
</g>
<defs>
<clipPath id="clip0_10671_160">
<rect width="54" height="27.4047" fill="white" transform="translate(0 0.297607)"/>
</clipPath>
</defs>
</svg>
