<svg width="24" height="20" viewBox="0 0 24 20" fill="none" xmlns="http://www.w3.org/2000/svg">
<path fill-rule="evenodd" clip-rule="evenodd" d="M23 0.388641C23.5469 0.388641 24 0.728485 24 1.13864V2.63864C24 3.0488 23.5469 3.38864 23 3.38864H1C0.453125 3.38864 0 3.0488 0 2.63864V1.13864C0 0.728485 0.453125 0.388641 1 0.388641H23ZM24 9.25C24 8.83985 23.5469 8.5 23 8.5H1C0.453125 8.5 0 8.83985 0 9.25V10.75C0 11.1602 0.453125 11.5 1 11.5H23C23.5469 11.5 24 11.1602 24 10.75V9.25ZM24 17.3614C24 16.9512 23.5469 16.6114 23 16.6114H1C0.453125 16.6114 0 16.9512 0 17.3614V18.8614C0 19.2715 0.453125 19.6114 1 19.6114H23C23.5469 19.6114 24 19.2715 24 18.8614V17.3614Z" fill="black"/>
</svg>
