<svg width="24" height="24" viewBox="0 0 24 24" fill="none" xmlns="http://www.w3.org/2000/svg">
<path fill-rule="evenodd" clip-rule="evenodd" d="M0 12C0 5.64873 5.37258 0.5 12 0.5C18.6244 0.506866 23.9928 5.65157 24 12C24 18.3513 18.6274 23.5 12 23.5C5.37258 23.5 0 18.3513 0 12ZM2.5 12C2.5 17.0281 6.75329 21.1042 12 21.1042C17.2442 21.0984 21.4939 17.0257 21.5 12C21.5 6.97194 17.2467 2.89586 12 2.89586C6.75329 2.89586 2.5 6.97194 2.5 12ZM12 12.9583C14.2091 12.9583 16 11.2421 16 9.12497C16 7.00788 14.2091 5.29164 12 5.29164C9.79086 5.29164 8 7.00788 8 9.12497C8 11.2421 9.79086 12.9583 12 12.9583ZM6.04785 17.3044C7.14466 15.1062 9.45739 13.7034 11.9999 13.6943C14.5423 13.7034 16.8551 15.1062 17.9519 17.3044C18.0257 17.4529 18.0148 17.6274 17.9231 17.7664C17.8313 17.9055 17.6715 17.9898 17.4999 17.9896H6.49985C6.32816 17.9898 6.16838 17.9055 6.07664 17.7664C5.98489 17.6274 5.97403 17.4529 6.04785 17.3044Z" fill="black"/>
</svg>
