<svg width="40" height="40" viewBox="0 0 40 40" fill="none" xmlns="http://www.w3.org/2000/svg">
<path d="M17.4286 10C19.3988 10 21.2882 10.7827 22.6814 12.1758C24.0745 13.5689 24.8571 15.4584 24.8571 17.4286C24.8571 19.2686 24.1829 20.96 23.0743 22.2629L23.3829 22.5714H24.2857L30 28.2857L28.2857 30L22.5714 24.2857V23.3829L22.2629 23.0743C20.96 24.1829 19.2686 24.8571 17.4286 24.8571C15.4584 24.8571 13.5689 24.0745 12.1758 22.6814C10.7827 21.2882 10 19.3988 10 17.4286C10 15.4584 10.7827 13.5689 12.1758 12.1758C13.5689 10.7827 15.4584 10 17.4286 10ZM17.4286 12.2857C14.5714 12.2857 12.2857 14.5714 12.2857 17.4286C12.2857 20.2857 14.5714 22.5714 17.4286 22.5714C20.2857 22.5714 22.5714 20.2857 22.5714 17.4286C22.5714 14.5714 20.2857 12.2857 17.4286 12.2857Z" fill="black"/>
</svg>
